<?xml version="1.0" encoding="UTF-8"?>
<svg width="184px" height="186px" viewBox="0 0 184 186" version="1.1" xmlns="http://www.w3.org/2000/svg" xmlns:xlink="http://www.w3.org/1999/xlink">
    <!-- Generator: Sketch 47.1 (45422) - http://www.bohemiancoding.com/sketch -->
    <title>logos</title>
    <desc>Created with Sketch.</desc>
    <defs>
        <radialGradient cx="99.938798%" cy="99.9902198%" fx="99.938798%" fy="99.9902198%" r="115.408943%" gradientTransform="translate(0.999388,0.999902),scale(1.000000,0.780309),translate(-0.999388,-0.999902)" id="radialGradient-1">
            <stop stop-color="#FFCF4F" offset="0%"></stop>
            <stop stop-color="#F4C236" offset="100%"></stop>
        </radialGradient>
        <radialGradient cx="99.9508259%" cy="99.9913595%" fx="99.9508259%" fy="99.9913595%" r="128.838083%" gradientTransform="translate(0.999508,0.999914),scale(1.000000,0.660373),translate(-0.999508,-0.999914)" id="radialGradient-2">
            <stop stop-color="#08A960" offset="0%"></stop>
            <stop stop-color="#07914B" offset="100%"></stop>
        </radialGradient>
        <radialGradient cx="99.968831%" cy="99.9943903%" fx="99.968831%" fy="99.9943903%" r="130.881758%" gradientTransform="translate(0.999688,0.999944),scale(1.000000,0.645720),translate(-0.999688,-0.999944)" id="radialGradient-3">
            <stop stop-color="#567FC0" offset="0%"></stop>
            <stop stop-color="#557FC0" offset="100%"></stop>
        </radialGradient>
        <radialGradient cx="99.9593554%" cy="99.9891664%" fx="99.9593554%" fy="99.9891664%" r="123.138584%" gradientTransform="translate(0.999594,0.999892),scale(1.000000,0.705651),translate(-0.999594,-0.999892)" id="radialGradient-4">
            <stop stop-color="#E14C40" offset="0%"></stop>
            <stop stop-color="#CD392D" offset="100%"></stop>
        </radialGradient>
        <radialGradient cx="99.938798%" cy="100.008831%" fx="99.938798%" fy="100.008831%" r="115.408943%" gradientTransform="translate(0.999388,1.000088),scale(1.000000,0.780309),translate(-0.999388,-1.000088)" id="radialGradient-5">
            <stop stop-color="#CCCCCC" offset="0%"></stop>
            <stop stop-color="#C0C0C0" offset="100%"></stop>
        </radialGradient>
        <radialGradient cx="99.9508259%" cy="100.004157%" fx="99.9508259%" fy="100.004157%" r="128.838083%" gradientTransform="translate(0.999508,1.000042),scale(1.000000,0.660373),translate(-0.999508,-1.000042)" id="radialGradient-6">
            <stop stop-color="#A0A0A0" offset="0%"></stop>
            <stop stop-color="#7B7B7B" offset="100%"></stop>
        </radialGradient>
        <radialGradient cx="99.9682303%" cy="100.002822%" fx="99.9682303%" fy="100.002822%" r="130.882545%" gradientTransform="translate(0.999682,1.000028),scale(1.000000,0.645716),translate(-0.999682,-1.000028)" id="radialGradient-7">
            <stop stop-color="#848484" offset="0%"></stop>
            <stop stop-color="#838383" offset="100%"></stop>
        </radialGradient>
        <radialGradient cx="99.9593554%" cy="100.000033%" fx="99.9593554%" fy="100.000033%" r="123.138584%" gradientTransform="translate(0.999594,1.000000),scale(1.000000,0.705651),translate(-0.999594,-1.000000)" id="radialGradient-8">
            <stop stop-color="#626262" offset="0%"></stop>
            <stop stop-color="#474747" offset="100%"></stop>
        </radialGradient>
        <radialGradient cx="99.9429866%" cy="100.027019%" fx="99.9429866%" fy="100.027019%" r="115.408943%" gradientTransform="translate(0.999430,1.000270),scale(1.000000,0.780309),translate(-0.999430,-1.000270)" id="radialGradient-9">
            <stop stop-color="#FFCF4F" offset="0%"></stop>
            <stop stop-color="#F4C236" offset="100%"></stop>
        </radialGradient>
        <radialGradient cx="99.9522343%" cy="100.016601%" fx="99.9522343%" fy="100.016601%" r="128.840626%" gradientTransform="translate(0.999522,1.000166),scale(1.000000,0.660360),translate(-0.999522,-1.000166)" id="radialGradient-10">
            <stop stop-color="#08A960" offset="0%"></stop>
            <stop stop-color="#07914B" offset="100%"></stop>
        </radialGradient>
        <radialGradient cx="99.9706055%" cy="100.011353%" fx="99.9706055%" fy="100.011353%" r="130.882545%" gradientTransform="translate(0.999706,1.000114),scale(1.000000,0.645716),translate(-0.999706,-1.000114)" id="radialGradient-11">
            <stop stop-color="#567FC0" offset="0%"></stop>
            <stop stop-color="#557FC0" offset="100%"></stop>
        </radialGradient>
        <radialGradient cx="99.9620113%" cy="100.010768%" fx="99.9620113%" fy="100.010768%" r="123.138584%" gradientTransform="translate(0.999620,1.000108),scale(1.000000,0.705651),translate(-0.999620,-1.000108)" id="radialGradient-12">
            <stop stop-color="#E14C40" offset="0%"></stop>
            <stop stop-color="#CD392D" offset="100%"></stop>
        </radialGradient>
    </defs>
    <g id="Page-1" stroke="none" stroke-width="1" fill="none" fill-rule="evenodd">
        <g id="logos">
            <g id="Group">
                <g id="Shape" transform="translate(102.000000, 9.000000)" fill-rule="nonzero" fill="#4E4E4E">
                    <path d="M13.912,7.967 C13.912,10.643 13.181,12.705 11.719,14.153 C10.257,15.601 8.201,16.324 5.553,16.324 L0.405,16.324 L0.405,0.29 L5.912,0.29 C8.466,0.29 10.438,0.948 11.828,2.264 C13.217,3.58 13.912,5.481 13.912,7.967 Z M9.45,8.121 C9.45,6.652 9.161,5.562 8.584,4.853 C8.007,4.144 7.131,3.789 5.956,3.789 L4.705,3.789 L4.705,12.771 L5.663,12.771 C6.969,12.771 7.927,12.389 8.537,11.625 C9.147,10.861 9.45,9.693 9.45,8.121 Z"></path>
                    <path d="M21.129,16.544 C19.076,16.544 17.483,15.994 16.346,14.894 C15.21,13.793 14.642,12.227 14.642,10.194 C14.642,8.095 15.168,6.485 16.22,5.362 C17.273,4.24 18.775,3.678 20.726,3.678 C22.583,3.678 24.019,4.166 25.031,5.142 C26.043,6.118 26.551,7.524 26.551,9.359 L26.551,11.267 L18.942,11.267 C18.971,11.962 19.223,12.506 19.7,12.901 C20.175,13.296 20.821,13.493 21.641,13.493 C22.389,13.493 23.077,13.422 23.704,13.279 C24.333,13.136 25.013,12.893 25.745,12.55 L25.745,15.632 C25.077,15.976 24.388,16.213 23.677,16.345 C22.965,16.478 22.117,16.544 21.129,16.544 Z M20.879,6.596 C20.379,6.596 19.959,6.755 19.623,7.073 C19.285,7.391 19.086,7.89 19.029,8.57 L22.685,8.57 C22.671,7.971 22.501,7.492 22.179,7.133 C21.857,6.774 21.424,6.596 20.879,6.596 Z"></path>
                    <path d="M30.851,16.325 L26.149,3.899 L30.589,3.899 L32.679,11.247 C32.687,11.284 32.701,11.346 32.723,11.434 C32.745,11.522 32.766,11.626 32.788,11.747 C32.809,11.868 32.829,11.996 32.848,12.131 C32.866,12.267 32.875,12.393 32.875,12.509 L32.951,12.509 C32.951,12.129 33.016,11.716 33.146,11.27 L35.334,3.9 L39.764,3.9 L35.062,16.326 L30.851,16.326 L30.851,16.325 Z"></path>
                    <polygon points="44.381 16.325 40.147 16.325 40.147 0.29 49.551 0.29 49.551 3.767 44.381 3.767 44.381 6.827 49.148 6.827 49.148 10.304 44.381 10.304"></polygon>
                    <path d="M56.528,16.544 C54.474,16.544 52.881,15.994 51.745,14.894 C50.609,13.794 50.042,12.227 50.042,10.194 C50.042,8.095 50.567,6.485 51.62,5.362 C52.672,4.24 54.174,3.678 56.126,3.678 C57.983,3.678 59.418,4.166 60.431,5.142 C61.443,6.118 61.95,7.524 61.95,9.359 L61.95,11.267 L54.342,11.267 C54.371,11.962 54.623,12.506 55.099,12.901 C55.574,13.296 56.221,13.493 57.041,13.493 C57.788,13.493 58.476,13.422 59.104,13.279 C59.732,13.136 60.412,12.893 61.145,12.55 L61.145,15.632 C60.477,15.976 59.788,16.213 59.077,16.345 C58.364,16.478 57.516,16.544 56.528,16.544 Z M56.278,6.596 C55.777,6.596 55.358,6.755 55.021,7.073 C54.683,7.391 54.485,7.89 54.427,8.57 L58.084,8.57 C58.069,7.971 57.9,7.492 57.578,7.133 C57.256,6.775 56.822,6.596 56.278,6.596 Z"></path>
                    <path d="M72.541,12.508 C72.541,13.839 72.091,14.844 71.191,15.524 C70.291,16.204 69,16.544 67.316,16.544 C66.402,16.544 65.607,16.495 64.932,16.396 C64.257,16.297 63.568,16.116 62.865,15.853 L62.865,12.42 C63.525,12.712 64.249,12.954 65.036,13.144 C65.823,13.334 66.525,13.429 67.142,13.429 C68.063,13.429 68.524,13.217 68.524,12.793 C68.524,12.574 68.395,12.378 68.138,12.207 C67.88,12.035 67.131,11.701 65.89,11.203 C64.758,10.735 63.967,10.203 63.517,9.607 C63.068,9.011 62.842,8.256 62.842,7.342 C62.842,6.187 63.284,5.287 64.17,4.644 C65.055,4 66.307,3.679 67.925,3.679 C68.738,3.679 69.501,3.769 70.216,3.948 C70.931,4.127 71.673,4.388 72.443,4.732 L71.289,7.496 C70.724,7.24 70.125,7.023 69.493,6.844 C68.862,6.665 68.347,6.575 67.947,6.575 C67.251,6.575 66.903,6.747 66.903,7.091 C66.903,7.303 67.024,7.484 67.267,7.634 C67.51,7.784 68.212,8.089 69.373,8.55 C70.236,8.908 70.88,9.259 71.305,9.603 C71.73,9.947 72.041,10.351 72.241,10.815 C72.441,11.278 72.541,11.843 72.541,12.508 Z"></path>
                    <path d="M79.605,13.155 C80.178,13.155 80.864,13.012 81.663,12.727 L81.663,15.853 C81.09,16.102 80.544,16.279 80.024,16.385 C79.505,16.49 78.898,16.544 78.202,16.544 C76.772,16.544 75.742,16.191 75.11,15.486 C74.479,14.78 74.164,13.696 74.164,12.234 L74.164,7.112 L72.673,7.112 L72.673,5.368 L74.567,4.019 L75.667,1.409 L78.453,1.409 L78.453,3.899 L81.478,3.899 L81.478,7.112 L78.453,7.112 L78.453,11.949 C78.452,12.753 78.837,13.155 79.605,13.155 Z"></path>
                </g>
                <g id="Shape" transform="translate(48.000000, 9.000000)" fill="#4E4E4E" fill-rule="nonzero">
                    <path d="M7.571,7.313 L14.493,7.313 L14.493,15.957 C12.614,16.601 10.548,16.922 8.295,16.922 C5.823,16.922 3.913,16.206 2.564,14.772 C1.215,13.339 0.54,11.295 0.54,8.64 C0.54,6.051 1.279,4.037 2.756,2.596 C4.233,1.156 6.303,0.435 8.964,0.435 C9.973,0.435 10.926,0.53 11.822,0.72 C12.718,0.91 13.498,1.152 14.164,1.444 L12.793,4.844 C11.637,4.274 10.369,3.989 8.986,3.989 C7.721,3.989 6.743,4.401 6.052,5.223 C5.361,6.046 5.015,7.222 5.015,8.75 C5.015,10.249 5.328,11.392 5.953,12.178 C6.578,12.964 7.479,13.357 8.657,13.357 C9.301,13.357 9.893,13.295 10.434,13.17 L10.434,10.658 L7.571,10.658 L7.571,7.313 L7.571,7.313 Z"></path>
                    <path d="M30.026,8.344 C30.026,11.02 29.289,13.083 27.816,14.531 C26.343,15.979 24.271,16.703 21.602,16.703 L16.414,16.703 L16.414,0.666 L21.965,0.666 C24.539,0.666 26.526,1.324 27.926,2.641 C29.326,3.958 30.026,5.858 30.026,8.344 Z M25.529,8.498 C25.529,7.028 25.238,5.938 24.657,5.229 C24.075,4.52 23.193,4.165 22.008,4.165 L20.746,4.165 L20.746,13.148 L21.711,13.148 C23.027,13.148 23.993,12.766 24.607,12.002 C25.221,11.238 25.529,10.07 25.529,8.498 Z"></path>
                    <path d="M37.991,7.313 L44.913,7.313 L44.913,15.957 C43.034,16.601 40.968,16.922 38.715,16.922 C36.243,16.922 34.333,16.206 32.984,14.772 C31.635,13.339 30.96,11.295 30.96,8.64 C30.96,6.051 31.699,4.037 33.176,2.596 C34.653,1.156 36.723,0.435 39.384,0.435 C40.393,0.435 41.346,0.53 42.242,0.72 C43.138,0.91 43.918,1.152 44.584,1.444 L43.213,4.844 C42.057,4.274 40.789,3.989 39.406,3.989 C38.141,3.989 37.163,4.401 36.472,5.223 C35.781,6.046 35.435,7.222 35.435,8.75 C35.435,10.249 35.748,11.392 36.373,12.178 C36.998,12.964 37.899,13.357 39.077,13.357 C39.721,13.357 40.313,13.295 40.854,13.17 L40.854,10.658 L37.991,10.658 L37.991,7.313 Z"></path>
                </g>
                <path d="M8.91,60 L15.701,60 C17.308,60 19.305,58.872 20.133,57.489 L25.853,47.97 C26.53,46.574 26.506,44.544 25.734,43.257 L22.356,37.665 L8.91,60 Z" id="Shape" fill="url(#radialGradient-1)" fill-rule="nonzero"></path>
                <path d="M16.209,32.514 L1.108,57.763 C0.524,59.011 1.131,60 2.629,60 L8.91,60 L22.356,37.665 L16.21,27.492 C17.039,28.87 17.039,31.13 16.209,32.514" id="Shape" fill="url(#radialGradient-2)" fill-rule="nonzero"></path>
                <path d="M2.629,0 C1.015,0 0.375,1.133 1.205,2.511 L25.734,43.256 C26.506,44.544 26.529,46.573 25.853,47.969 L31.816,38.044 L8.914,0 L2.629,0 Z" id="Shape" fill="url(#radialGradient-3)" fill-rule="nonzero"></path>
                <path d="M8.914,0 L31.817,38.045 L35.138,32.515 C35.968,31.13 35.968,28.87 35.138,27.492 L20.133,2.511 C19.305,1.133 17.308,0 15.701,0 L8.914,0 Z" id="Shape" fill="url(#radialGradient-4)" fill-rule="nonzero"></path>
                <path d="M59.0114439,45.3104813 L59.0114439,47.1293049 L50,47.1293049 L50,45.2278075 L53.6583155,41.5281551 C54.8846496,40.2742629 55.7320476,39.3338579 56.2005348,38.7069118 C56.669022,38.0799657 56.903262,37.4220266 56.903262,36.7330749 C56.903262,36.1130183 56.6621326,35.5825334 56.1798663,35.1416043 C55.6976001,34.7006752 55.0775528,34.4802139 54.3197059,34.4802139 C53.6720912,34.4802139 53.1140487,34.6731175 52.6455615,35.0589305 C52.1770743,35.4447435 51.8739401,35.9132236 51.7361497,36.464385 L50,35.7616578 C50.2755807,34.8935786 50.8060656,34.1598559 51.5914706,33.5604679 C52.3768756,32.9610799 53.3000571,32.6613904 54.3610428,32.6613904 C55.6424931,32.6613904 56.7103523,33.054087 57.5646524,33.839492 C58.4189526,34.624897 58.8460963,35.589415 58.8460963,36.7330749 C58.8460963,38.0971993 58.0951501,39.571534 56.5932353,41.156123 L52.4595455,45.3104813 L59.0114439,45.3104813 Z M60.8302674,40.0606952 C60.8302674,37.9111657 61.3607523,36.1405863 62.421738,34.7489038 C63.4827237,33.3572212 64.8468277,32.6613904 66.5140909,32.6613904 C68.1813542,32.6613904 69.5454582,33.3641106 70.6064439,34.7695722 C71.6674296,36.1612547 72.1979145,37.9249448 72.1979145,40.0606952 C72.1979145,42.1826666 71.6674296,43.9532461 70.6064439,45.3724867 C69.5454582,46.7641692 68.1813542,47.46 66.5140909,47.46 C64.8468277,47.46 63.4827237,46.7641692 62.421738,45.3724867 C61.3607523,43.9532461 60.8302674,42.1826666 60.8302674,40.0606952 Z M70.2550803,40.0606952 C70.2550803,38.4347691 69.9106096,37.0982227 69.2216578,36.0510161 C68.5464851,35.0038094 67.6439718,34.4802139 66.5140909,34.4802139 C65.3842101,34.4802139 64.4816968,35.0038094 63.8065241,36.0510161 C63.1175723,37.0982227 62.7731016,38.4347691 62.7731016,40.0606952 C62.7731016,41.6866213 63.1175723,43.0300571 63.8065241,44.0910428 C64.4816968,45.1244704 65.3842101,45.6411765 66.5140909,45.6411765 C67.6439718,45.6411765 68.5464851,45.117581 69.2216578,44.0703744 C69.9106096,43.0093887 70.2550803,41.6728423 70.2550803,40.0606952 Z M79.1011765,32.9920856 L79.1011765,47.1293049 L77.1996792,47.1293049 L77.1996792,35.3482888 L74.4507755,36.5470588 L73.7273797,34.9349198 L77.881738,32.9920856 L79.1011765,32.9920856 Z M90.8201873,34.9349198 L83.9582621,47.46 L82.2634493,46.5919252 L88.8153477,34.8109091 L81.6640642,34.8109091 L81.7054011,32.9920856 L90.8201873,32.9920856 L90.8201873,34.9349198 Z M111.509305,40.329385 C111.509305,42.3962403 110.896147,44.0428103 109.669813,45.2691444 C108.291909,46.7297221 106.479994,47.46 104.234011,47.46 C102.084481,47.46 100.265676,46.7159433 98.7775402,45.2278075 C97.2894044,43.7396717 96.5453477,41.9070876 96.5453477,39.73 C96.5453477,37.5529125 97.2894044,35.7203283 98.7775402,34.2321925 C100.265676,32.7440567 102.084481,32 104.234011,32 C105.322555,32 106.349077,32.1929036 107.31361,32.5787166 C108.278142,32.9645296 109.070425,33.5087933 109.690481,34.2115241 L108.326364,35.5756417 C107.871656,35.0244803 107.282611,34.5938919 106.559211,34.2838636 C105.835812,33.9738354 105.060753,33.8188235 104.234011,33.8188235 C102.621864,33.8188235 101.25776,34.3768661 100.141658,35.4929679 C99.0393351,36.6228488 98.4881819,38.0351787 98.4881819,39.73 C98.4881819,41.4248213 99.0393351,42.8371512 100.141658,43.9670321 C101.25776,45.083134 102.621864,45.6411765 104.234011,45.6411765 C105.708368,45.6411765 106.934683,45.2278117 107.912995,44.4010695 C108.891306,43.5743274 109.456238,42.4375741 109.607808,40.9907754 L104.234011,40.9907754 L104.234011,39.2132888 L111.405963,39.2132888 C111.474858,39.5991018 111.509305,39.9711301 111.509305,40.329385 Z M114.568235,44.0290375 C114.568235,44.5250827 114.778363,44.9384476 115.198623,45.2691444 C115.618884,45.5998413 116.111477,45.7651872 116.676417,45.7651872 C117.475601,45.7651872 118.188656,45.4689424 118.815602,44.8764439 C119.442548,44.2839454 119.756016,43.5881145 119.756016,42.7889305 C119.163518,42.3204433 118.336788,42.0862032 117.275802,42.0862032 C116.504176,42.0862032 115.860016,42.2722174 115.343302,42.6442514 C114.826588,43.0162853 114.568235,43.4778761 114.568235,44.0290375 Z M117.027781,36.6710695 C118.433242,36.6710695 119.542438,37.0465426 120.355401,37.7975 C121.168364,38.5484574 121.57484,39.5784248 121.57484,40.8874332 L121.57484,47.1293049 L119.756016,47.1293049 L119.756016,45.7238503 L119.673342,45.7238503 C118.887937,46.8812892 117.840746,47.46 116.531738,47.46 C115.415636,47.46 114.482121,47.1293082 113.731163,46.4679145 C112.980206,45.8065208 112.604733,44.9797911 112.604733,43.9877006 C112.604733,42.9404939 113.000874,42.1068748 113.793169,41.4868182 C114.585463,40.8667616 115.642988,40.556738 116.965776,40.556738 C118.095656,40.556738 119.025727,40.7634204 119.756016,41.1767915 L119.756016,40.742754 C119.756016,40.0813603 119.494218,39.5198731 118.970615,39.0582754 C118.447012,38.5966777 117.833854,38.3658824 117.131123,38.3658824 C116.070137,38.3658824 115.229629,38.8136943 114.609572,39.7093316 L112.935428,38.6552407 C113.858623,37.3324533 115.222727,36.6710695 117.027781,36.6710695 Z M125.625856,32.3306952 L125.625856,47.1293049 L123.724358,47.1293049 L123.724358,32.3306952 L125.625856,32.3306952 Z M130.400268,33.5087968 C130.400268,33.8808307 130.269369,34.1977438 130.007567,34.4595455 C129.745765,34.7213471 129.428852,34.852246 129.056818,34.852246 C128.684784,34.852246 128.367871,34.7213471 128.10607,34.4595455 C127.844268,34.1977438 127.713369,33.8808307 127.713369,33.5087968 C127.713369,33.1367628 127.844268,32.8198498 128.10607,32.5580481 C128.367871,32.2962465 128.684784,32.1653476 129.056818,32.1653476 C129.428852,32.1653476 129.745765,32.2962465 130.007567,32.5580481 C130.269369,32.8198498 130.400268,33.1367628 130.400268,33.5087968 Z M130.007567,37.0017647 L130.007567,47.1293049 L128.10607,47.1293049 L128.10607,37.0017647 L130.007567,37.0017647 Z M137.014171,47.46 C135.512257,47.46 134.265273,46.9501834 133.273182,45.9305348 C132.294871,44.8833281 131.805722,43.5950077 131.805722,42.0655348 C131.805722,40.5085038 132.294871,39.2201834 133.273182,38.2005348 C134.265273,37.1808862 135.512257,36.6710695 137.014171,36.6710695 C138.047599,36.6710695 138.950112,36.9294226 139.721738,37.4461364 C140.493364,37.9628502 141.072075,38.6759046 141.457888,39.5853209 L139.721738,40.3087166 C139.184356,39.0410454 138.240506,38.4072193 136.890161,38.4072193 C136.022081,38.4072193 135.271135,38.7585794 134.6373,39.4613102 C134.017243,40.164041 133.707219,41.0321072 133.707219,42.0655348 C133.707219,43.0989624 134.017243,43.9670286 134.6373,44.6697594 C135.271135,45.3724902 136.022081,45.7238503 136.890161,45.7238503 C138.281843,45.7238503 139.26014,45.0900242 139.82508,43.822353 L141.519893,44.5457487 C141.147859,45.455165 140.565704,46.1682194 139.773409,46.6849332 C138.981115,47.201647 138.061378,47.46 137.014171,47.46 Z M145.632915,33.5087968 C145.632915,33.8808307 145.502016,34.1977438 145.240214,34.4595455 C144.978412,34.7213471 144.661499,34.852246 144.289465,34.852246 C143.917432,34.852246 143.600518,34.7213471 143.338717,34.4595455 C143.076915,34.1977438 142.946016,33.8808307 142.946016,33.5087968 C142.946016,33.1367628 143.076915,32.8198498 143.338717,32.5580481 C143.600518,32.2962465 143.917432,32.1653476 144.289465,32.1653476 C144.661499,32.1653476 144.978412,32.2962465 145.240214,32.5580481 C145.502016,32.8198498 145.632915,33.1367628 145.632915,33.5087968 Z M145.240214,37.0017647 L145.240214,47.1293049 L143.338717,47.1293049 L143.338717,37.0017647 L145.240214,37.0017647 Z M149.001872,44.0290375 C149.001872,44.5250827 149.211999,44.9384476 149.63226,45.2691444 C150.05252,45.5998413 150.545113,45.7651872 151.110054,45.7651872 C151.909238,45.7651872 152.622292,45.4689424 153.249238,44.8764439 C153.876184,44.2839454 154.189653,43.5881145 154.189653,42.7889305 C153.597154,42.3204433 152.770424,42.0862032 151.709439,42.0862032 C150.937813,42.0862032 150.293653,42.2722174 149.776939,42.6442514 C149.260225,43.0162853 149.001872,43.4778761 149.001872,44.0290375 Z M151.461417,36.6710695 C152.866879,36.6710695 153.976075,37.0465426 154.789038,37.7975 C155.602001,38.5484574 156.008476,39.5784248 156.008476,40.8874332 L156.008476,47.1293049 L154.189653,47.1293049 L154.189653,45.7238503 L154.106979,45.7238503 C153.321574,46.8812892 152.274383,47.46 150.965375,47.46 C149.849273,47.46 148.915757,47.1293082 148.1648,46.4679145 C147.413842,45.8065208 147.038369,44.9797911 147.038369,43.9877006 C147.038369,42.9404939 147.434511,42.1068748 148.226805,41.4868182 C149.0191,40.8667616 150.076625,40.556738 151.399412,40.556738 C152.529293,40.556738 153.459364,40.7634204 154.189653,41.1767915 L154.189653,40.742754 C154.189653,40.0813603 153.927855,39.5198731 153.404252,39.0582754 C152.880648,38.5966777 152.26749,38.3658824 151.56476,38.3658824 C150.503774,38.3658824 149.663265,38.8136943 149.043209,39.7093316 L147.369064,38.6552407 C148.29226,37.3324533 149.656364,36.6710695 151.461417,36.6710695 Z" id="2017-Galicia" fill="#4A4A4A"></path>
            </g>
            <g id="Group" transform="translate(0.000000, 63.000000)">
                <g id="Shape" transform="translate(102.000000, 9.000000)" fill-rule="nonzero" fill="#4E4E4E">
                    <path d="M13.912,7.967 C13.912,10.644 13.181,12.705 11.719,14.154 C10.257,15.601 8.201,16.325 5.553,16.325 L0.405,16.325 L0.405,0.29 L5.912,0.29 C8.466,0.29 10.438,0.947 11.828,2.264 C13.218,3.581 13.912,5.481 13.912,7.967 Z M9.45,8.12 C9.45,6.651 9.161,5.561 8.584,4.852 C8.007,4.142 7.131,3.788 5.956,3.788 L4.705,3.788 L4.705,12.77 L5.663,12.77 C6.969,12.77 7.927,12.388 8.537,11.624 C9.145,10.86 9.45,9.692 9.45,8.12 Z"></path>
                    <path d="M21.129,16.544 C19.076,16.544 17.483,15.994 16.346,14.894 C15.21,13.793 14.642,12.227 14.642,10.194 C14.642,8.095 15.168,6.485 16.22,5.363 C17.273,4.241 18.775,3.679 20.726,3.679 C22.583,3.679 24.019,4.167 25.031,5.143 C26.043,6.12 26.551,7.525 26.551,9.361 L26.551,11.269 L18.942,11.269 C18.971,11.963 19.223,12.508 19.7,12.903 C20.175,13.299 20.821,13.496 21.641,13.496 C22.389,13.496 23.077,13.425 23.704,13.282 C24.333,13.139 25.013,12.896 25.745,12.553 L25.745,15.635 C25.077,15.979 24.388,16.216 23.677,16.348 C22.965,16.478 22.117,16.544 21.129,16.544 Z M20.879,6.596 C20.379,6.596 19.959,6.755 19.623,7.074 C19.285,7.392 19.086,7.891 19.029,8.571 L22.685,8.571 C22.671,7.971 22.501,7.493 22.179,7.134 C21.857,6.775 21.424,6.596 20.879,6.596 Z"></path>
                    <path d="M30.851,16.324 L26.149,3.898 L30.589,3.898 L32.679,11.246 C32.687,11.283 32.701,11.345 32.723,11.433 C32.745,11.521 32.766,11.625 32.788,11.746 C32.809,11.867 32.829,11.995 32.848,12.13 C32.866,12.266 32.875,12.392 32.875,12.509 L32.951,12.509 C32.951,12.129 33.016,11.716 33.146,11.27 L35.334,3.9 L39.764,3.9 L35.062,16.326 L30.851,16.326 L30.851,16.324 Z"></path>
                    <polygon points="44.381 16.324 40.147 16.324 40.147 0.29 49.551 0.29 49.551 3.767 44.381 3.767 44.381 6.827 49.148 6.827 49.148 10.304 44.381 10.304"></polygon>
                    <path d="M56.528,16.544 C54.474,16.544 52.881,15.994 51.745,14.894 C50.609,13.794 50.042,12.227 50.042,10.194 C50.042,8.095 50.567,6.485 51.62,5.363 C52.672,4.241 54.174,3.679 56.126,3.679 C57.983,3.679 59.418,4.167 60.431,5.143 C61.443,6.12 61.95,7.525 61.95,9.361 L61.95,11.269 L54.342,11.269 C54.371,11.963 54.623,12.508 55.099,12.903 C55.574,13.299 56.221,13.496 57.041,13.496 C57.788,13.496 58.476,13.425 59.104,13.282 C59.732,13.139 60.412,12.896 61.145,12.553 L61.145,15.635 C60.477,15.979 59.788,16.216 59.077,16.348 C58.364,16.478 57.516,16.544 56.528,16.544 Z M56.278,6.596 C55.777,6.596 55.358,6.755 55.021,7.074 C54.683,7.392 54.485,7.891 54.427,8.571 L58.084,8.571 C58.069,7.971 57.9,7.493 57.578,7.134 C57.256,6.775 56.822,6.596 56.278,6.596 Z"></path>
                    <path d="M72.541,12.508 C72.541,13.839 72.091,14.844 71.191,15.524 C70.291,16.205 69,16.545 67.316,16.545 C66.402,16.545 65.607,16.495 64.932,16.397 C64.257,16.299 63.568,16.118 62.865,15.854 L62.865,12.42 C63.525,12.713 64.249,12.954 65.036,13.144 C65.823,13.334 66.525,13.429 67.142,13.429 C68.063,13.429 68.524,13.217 68.524,12.793 C68.524,12.573 68.395,12.378 68.138,12.206 C67.88,12.034 67.131,11.7 65.89,11.202 C64.758,10.734 63.967,10.203 63.517,9.606 C63.068,9.01 62.842,8.255 62.842,7.341 C62.842,6.186 63.284,5.286 64.17,4.643 C65.055,3.999 66.307,3.678 67.925,3.678 C68.738,3.678 69.501,3.768 70.216,3.947 C70.931,4.127 71.673,4.387 72.443,4.731 L71.289,7.495 C70.724,7.239 70.125,7.022 69.493,6.843 C68.862,6.664 68.347,6.574 67.947,6.574 C67.251,6.574 66.903,6.746 66.903,7.09 C66.903,7.302 67.024,7.483 67.267,7.633 C67.51,7.782 68.212,8.088 69.373,8.548 C70.236,8.906 70.88,9.258 71.305,9.602 C71.73,9.946 72.041,10.349 72.241,10.814 C72.441,11.277 72.541,11.843 72.541,12.508 Z"></path>
                    <path d="M79.605,13.154 C80.178,13.154 80.864,13.011 81.663,12.726 L81.663,15.852 C81.09,16.101 80.544,16.279 80.024,16.384 C79.505,16.489 78.898,16.543 78.202,16.543 C76.772,16.543 75.742,16.19 75.11,15.484 C74.479,14.779 74.164,13.695 74.164,12.232 L74.164,7.11 L72.673,7.11 L72.673,5.367 L74.567,4.017 L75.667,1.407 L78.453,1.407 L78.453,3.897 L81.478,3.897 L81.478,7.11 L78.453,7.11 L78.453,11.947 C78.452,12.753 78.837,13.154 79.605,13.154 Z"></path>
                </g>
                <g id="Shape" transform="translate(48.000000, 9.000000)" fill="#4E4E4E" fill-rule="nonzero">
                    <path d="M7.571,7.313 L14.493,7.313 L14.493,15.957 C12.614,16.601 10.548,16.923 8.295,16.923 C5.823,16.923 3.913,16.206 2.564,14.773 C1.215,13.34 0.54,11.296 0.54,8.641 C0.54,6.052 1.279,4.038 2.756,2.597 C4.233,1.157 6.303,0.436 8.964,0.436 C9.973,0.436 10.926,0.532 11.822,0.721 C12.718,0.911 13.498,1.153 14.164,1.446 L12.793,4.846 C11.637,4.276 10.369,3.991 8.986,3.991 C7.721,3.991 6.743,4.402 6.052,5.224 C5.361,6.047 5.015,7.223 5.015,8.751 C5.015,10.25 5.328,11.393 5.953,12.179 C6.578,12.965 7.479,13.358 8.657,13.358 C9.301,13.358 9.893,13.296 10.434,13.171 L10.434,10.659 L7.571,10.659 L7.571,7.313 L7.571,7.313 Z"></path>
                    <path d="M30.026,8.344 C30.026,11.021 29.289,13.083 27.816,14.531 C26.342,15.979 24.271,16.703 21.602,16.703 L16.414,16.703 L16.414,0.665 L21.965,0.665 C24.539,0.665 26.526,1.323 27.926,2.64 C29.326,3.957 30.026,5.857 30.026,8.344 Z M25.529,8.497 C25.529,7.027 25.238,5.937 24.657,5.228 C24.076,4.519 23.193,4.165 22.008,4.165 L20.746,4.165 L20.746,13.148 L21.711,13.148 C23.027,13.148 23.993,12.766 24.607,12.002 C25.222,11.238 25.529,10.069 25.529,8.497 Z"></path>
                    <path d="M37.991,7.313 L44.913,7.313 L44.913,15.957 C43.034,16.601 40.968,16.923 38.715,16.923 C36.243,16.923 34.333,16.206 32.984,14.773 C31.635,13.34 30.96,11.296 30.96,8.641 C30.96,6.052 31.699,4.038 33.176,2.597 C34.653,1.157 36.723,0.436 39.384,0.436 C40.393,0.436 41.346,0.532 42.242,0.721 C43.138,0.911 43.918,1.153 44.584,1.446 L43.213,4.846 C42.057,4.276 40.789,3.991 39.406,3.991 C38.141,3.991 37.163,4.402 36.472,5.224 C35.781,6.047 35.435,7.223 35.435,8.751 C35.435,10.25 35.748,11.393 36.373,12.179 C36.998,12.965 37.899,13.358 39.077,13.358 C39.721,13.358 40.313,13.296 40.854,13.171 L40.854,10.659 L37.991,10.659 L37.991,7.313 Z"></path>
                </g>
                <path d="M8.91,60 L15.701,60 C17.308,60 19.305,58.872 20.133,57.489 L25.853,47.97 C26.53,46.574 26.506,44.544 25.734,43.257 L22.356,37.665 L8.91,60 Z" id="Shape" fill="url(#radialGradient-5)" fill-rule="nonzero"></path>
                <path d="M16.209,32.514 L1.108,57.763 C0.524,59.011 1.131,60 2.629,60 L8.91,60 L22.356,37.665 L16.21,27.492 C17.039,28.87 17.039,31.13 16.209,32.514" id="Shape" fill="url(#radialGradient-6)" fill-rule="nonzero"></path>
                <path d="M2.629,0 C1.016,0 0.375,1.133 1.205,2.511 L25.734,43.256 C26.506,44.544 26.529,46.573 25.853,47.969 L31.816,38.044 L8.914,0 L2.629,0 Z" id="Shape" fill="url(#radialGradient-7)" fill-rule="nonzero"></path>
                <path d="M8.914,0 L31.817,38.045 L35.138,32.515 C35.968,31.13 35.968,28.87 35.138,27.492 L20.134,2.512 C19.305,1.133 17.308,0 15.701,0 L8.914,0 Z" id="Shape" fill="url(#radialGradient-8)" fill-rule="nonzero"></path>
                <path d="M59.0114439,44.3104813 L59.0114439,46.1293049 L50,46.1293049 L50,44.2278075 L53.6583155,40.5281551 C54.8846496,39.2742629 55.7320476,38.3338579 56.2005348,37.7069118 C56.669022,37.0799657 56.903262,36.4220266 56.903262,35.7330749 C56.903262,35.1130183 56.6621326,34.5825334 56.1798663,34.1416043 C55.6976001,33.7006752 55.0775528,33.4802139 54.3197059,33.4802139 C53.6720912,33.4802139 53.1140487,33.6731175 52.6455615,34.0589305 C52.1770743,34.4447435 51.8739401,34.9132236 51.7361497,35.464385 L50,34.7616578 C50.2755807,33.8935786 50.8060656,33.1598559 51.5914706,32.5604679 C52.3768756,31.9610799 53.3000571,31.6613904 54.3610428,31.6613904 C55.6424931,31.6613904 56.7103523,32.054087 57.5646524,32.839492 C58.4189526,33.624897 58.8460963,34.589415 58.8460963,35.7330749 C58.8460963,37.0971993 58.0951501,38.571534 56.5932353,40.156123 L52.4595455,44.3104813 L59.0114439,44.3104813 Z M60.8302674,39.0606952 C60.8302674,36.9111657 61.3607523,35.1405863 62.421738,33.7489038 C63.4827237,32.3572212 64.8468277,31.6613904 66.5140909,31.6613904 C68.1813542,31.6613904 69.5454582,32.3641106 70.6064439,33.7695722 C71.6674296,35.1612547 72.1979145,36.9249448 72.1979145,39.0606952 C72.1979145,41.1826666 71.6674296,42.9532461 70.6064439,44.3724867 C69.5454582,45.7641692 68.1813542,46.46 66.5140909,46.46 C64.8468277,46.46 63.4827237,45.7641692 62.421738,44.3724867 C61.3607523,42.9532461 60.8302674,41.1826666 60.8302674,39.0606952 Z M70.2550803,39.0606952 C70.2550803,37.4347691 69.9106096,36.0982227 69.2216578,35.0510161 C68.5464851,34.0038094 67.6439718,33.4802139 66.5140909,33.4802139 C65.3842101,33.4802139 64.4816968,34.0038094 63.8065241,35.0510161 C63.1175723,36.0982227 62.7731016,37.4347691 62.7731016,39.0606952 C62.7731016,40.6866213 63.1175723,42.0300571 63.8065241,43.0910428 C64.4816968,44.1244704 65.3842101,44.6411765 66.5140909,44.6411765 C67.6439718,44.6411765 68.5464851,44.117581 69.2216578,43.0703744 C69.9106096,42.0093887 70.2550803,40.6728423 70.2550803,39.0606952 Z M79.1011765,31.9920856 L79.1011765,46.1293049 L77.1996792,46.1293049 L77.1996792,34.3482888 L74.4507755,35.5470588 L73.7273797,33.9349198 L77.881738,31.9920856 L79.1011765,31.9920856 Z M90.8201873,33.9349198 L83.9582621,46.46 L82.2634493,45.5919252 L88.8153477,33.8109091 L81.6640642,33.8109091 L81.7054011,31.9920856 L90.8201873,31.9920856 L90.8201873,33.9349198 Z M111.509305,39.329385 C111.509305,41.3962403 110.896147,43.0428103 109.669813,44.2691444 C108.291909,45.7297221 106.479994,46.46 104.234011,46.46 C102.084481,46.46 100.265676,45.7159433 98.7775402,44.2278075 C97.2894044,42.7396717 96.5453477,40.9070876 96.5453477,38.73 C96.5453477,36.5529125 97.2894044,34.7203283 98.7775402,33.2321925 C100.265676,31.7440567 102.084481,31 104.234011,31 C105.322555,31 106.349077,31.1929036 107.31361,31.5787166 C108.278142,31.9645296 109.070425,32.5087933 109.690481,33.2115241 L108.326364,34.5756417 C107.871656,34.0244803 107.282611,33.5938919 106.559211,33.2838636 C105.835812,32.9738354 105.060753,32.8188235 104.234011,32.8188235 C102.621864,32.8188235 101.25776,33.3768661 100.141658,34.4929679 C99.0393351,35.6228488 98.4881819,37.0351787 98.4881819,38.73 C98.4881819,40.4248213 99.0393351,41.8371512 100.141658,42.9670321 C101.25776,44.083134 102.621864,44.6411765 104.234011,44.6411765 C105.708368,44.6411765 106.934683,44.2278117 107.912995,43.4010695 C108.891306,42.5743274 109.456238,41.4375741 109.607808,39.9907754 L104.234011,39.9907754 L104.234011,38.2132888 L111.405963,38.2132888 C111.474858,38.5991018 111.509305,38.9711301 111.509305,39.329385 Z M114.568235,43.0290375 C114.568235,43.5250827 114.778363,43.9384476 115.198623,44.2691444 C115.618884,44.5998413 116.111477,44.7651872 116.676417,44.7651872 C117.475601,44.7651872 118.188656,44.4689424 118.815602,43.8764439 C119.442548,43.2839454 119.756016,42.5881145 119.756016,41.7889305 C119.163518,41.3204433 118.336788,41.0862032 117.275802,41.0862032 C116.504176,41.0862032 115.860016,41.2722174 115.343302,41.6442514 C114.826588,42.0162853 114.568235,42.4778761 114.568235,43.0290375 Z M117.027781,35.6710695 C118.433242,35.6710695 119.542438,36.0465426 120.355401,36.7975 C121.168364,37.5484574 121.57484,38.5784248 121.57484,39.8874332 L121.57484,46.1293049 L119.756016,46.1293049 L119.756016,44.7238503 L119.673342,44.7238503 C118.887937,45.8812892 117.840746,46.46 116.531738,46.46 C115.415636,46.46 114.482121,46.1293082 113.731163,45.4679145 C112.980206,44.8065208 112.604733,43.9797911 112.604733,42.9877006 C112.604733,41.9404939 113.000874,41.1068748 113.793169,40.4868182 C114.585463,39.8667616 115.642988,39.556738 116.965776,39.556738 C118.095656,39.556738 119.025727,39.7634204 119.756016,40.1767915 L119.756016,39.742754 C119.756016,39.0813603 119.494218,38.5198731 118.970615,38.0582754 C118.447012,37.5966777 117.833854,37.3658824 117.131123,37.3658824 C116.070137,37.3658824 115.229629,37.8136943 114.609572,38.7093316 L112.935428,37.6552407 C113.858623,36.3324533 115.222727,35.6710695 117.027781,35.6710695 Z M125.625856,31.3306952 L125.625856,46.1293049 L123.724358,46.1293049 L123.724358,31.3306952 L125.625856,31.3306952 Z M130.400268,32.5087968 C130.400268,32.8808307 130.269369,33.1977438 130.007567,33.4595455 C129.745765,33.7213471 129.428852,33.852246 129.056818,33.852246 C128.684784,33.852246 128.367871,33.7213471 128.10607,33.4595455 C127.844268,33.1977438 127.713369,32.8808307 127.713369,32.5087968 C127.713369,32.1367628 127.844268,31.8198498 128.10607,31.5580481 C128.367871,31.2962465 128.684784,31.1653476 129.056818,31.1653476 C129.428852,31.1653476 129.745765,31.2962465 130.007567,31.5580481 C130.269369,31.8198498 130.400268,32.1367628 130.400268,32.5087968 Z M130.007567,36.0017647 L130.007567,46.1293049 L128.10607,46.1293049 L128.10607,36.0017647 L130.007567,36.0017647 Z M137.014171,46.46 C135.512257,46.46 134.265273,45.9501834 133.273182,44.9305348 C132.294871,43.8833281 131.805722,42.5950077 131.805722,41.0655348 C131.805722,39.5085038 132.294871,38.2201834 133.273182,37.2005348 C134.265273,36.1808862 135.512257,35.6710695 137.014171,35.6710695 C138.047599,35.6710695 138.950112,35.9294226 139.721738,36.4461364 C140.493364,36.9628502 141.072075,37.6759046 141.457888,38.5853209 L139.721738,39.3087166 C139.184356,38.0410454 138.240506,37.4072193 136.890161,37.4072193 C136.022081,37.4072193 135.271135,37.7585794 134.6373,38.4613102 C134.017243,39.164041 133.707219,40.0321072 133.707219,41.0655348 C133.707219,42.0989624 134.017243,42.9670286 134.6373,43.6697594 C135.271135,44.3724902 136.022081,44.7238503 136.890161,44.7238503 C138.281843,44.7238503 139.26014,44.0900242 139.82508,42.822353 L141.519893,43.5457487 C141.147859,44.455165 140.565704,45.1682194 139.773409,45.6849332 C138.981115,46.201647 138.061378,46.46 137.014171,46.46 Z M145.632915,32.5087968 C145.632915,32.8808307 145.502016,33.1977438 145.240214,33.4595455 C144.978412,33.7213471 144.661499,33.852246 144.289465,33.852246 C143.917432,33.852246 143.600518,33.7213471 143.338717,33.4595455 C143.076915,33.1977438 142.946016,32.8808307 142.946016,32.5087968 C142.946016,32.1367628 143.076915,31.8198498 143.338717,31.5580481 C143.600518,31.2962465 143.917432,31.1653476 144.289465,31.1653476 C144.661499,31.1653476 144.978412,31.2962465 145.240214,31.5580481 C145.502016,31.8198498 145.632915,32.1367628 145.632915,32.5087968 Z M145.240214,36.0017647 L145.240214,46.1293049 L143.338717,46.1293049 L143.338717,36.0017647 L145.240214,36.0017647 Z M149.001872,43.0290375 C149.001872,43.5250827 149.211999,43.9384476 149.63226,44.2691444 C150.05252,44.5998413 150.545113,44.7651872 151.110054,44.7651872 C151.909238,44.7651872 152.622292,44.4689424 153.249238,43.8764439 C153.876184,43.2839454 154.189653,42.5881145 154.189653,41.7889305 C153.597154,41.3204433 152.770424,41.0862032 151.709439,41.0862032 C150.937813,41.0862032 150.293653,41.2722174 149.776939,41.6442514 C149.260225,42.0162853 149.001872,42.4778761 149.001872,43.0290375 Z M151.461417,35.6710695 C152.866879,35.6710695 153.976075,36.0465426 154.789038,36.7975 C155.602001,37.5484574 156.008476,38.5784248 156.008476,39.8874332 L156.008476,46.1293049 L154.189653,46.1293049 L154.189653,44.7238503 L154.106979,44.7238503 C153.321574,45.8812892 152.274383,46.46 150.965375,46.46 C149.849273,46.46 148.915757,46.1293082 148.1648,45.4679145 C147.413842,44.8065208 147.038369,43.9797911 147.038369,42.9877006 C147.038369,41.9404939 147.434511,41.1068748 148.226805,40.4868182 C149.0191,39.8667616 150.076625,39.556738 151.399412,39.556738 C152.529293,39.556738 153.459364,39.7634204 154.189653,40.1767915 L154.189653,39.742754 C154.189653,39.0813603 153.927855,38.5198731 153.404252,38.0582754 C152.880648,37.5966777 152.26749,37.3658824 151.56476,37.3658824 C150.503774,37.3658824 149.663265,37.8136943 149.043209,38.7093316 L147.369064,37.6552407 C148.29226,36.3324533 149.656364,35.6710695 151.461417,35.6710695 Z" id="2017-Galicia" fill="#4A4A4A"></path>
            </g>
            <g id="Group" transform="translate(1.000000, 126.000000)">
                <g id="Shape" transform="translate(101.000000, 9.000000)" fill-rule="nonzero" fill="#E6E6E5">
                    <path d="M14.071,7.967 C14.071,10.643 13.34,12.705 11.878,14.153 C10.416,15.601 8.36,16.325 5.712,16.325 L0.564,16.325 L0.564,0.29 L6.071,0.29 C8.625,0.29 10.597,0.948 11.987,2.265 C13.377,3.582 14.071,5.48 14.071,7.967 Z M9.608,8.12 C9.608,6.65 9.319,5.561 8.742,4.851 C8.165,4.142 7.289,3.788 6.114,3.788 L4.863,3.788 L4.863,12.77 L5.821,12.77 C7.127,12.77 8.085,12.388 8.695,11.624 C9.303,10.86 9.608,9.692 9.608,8.12 Z"></path>
                    <path d="M21.287,16.544 C19.234,16.544 17.641,15.993 16.505,14.893 C15.369,13.793 14.801,12.226 14.801,10.194 C14.801,8.095 15.327,6.485 16.379,5.363 C17.431,4.24 18.933,3.679 20.884,3.679 C22.741,3.679 24.177,4.166 25.189,5.143 C26.201,6.12 26.709,7.525 26.709,9.36 L26.709,11.269 L19.1,11.269 C19.129,11.963 19.381,12.508 19.858,12.903 C20.333,13.298 20.979,13.495 21.799,13.495 C22.547,13.495 23.235,13.424 23.862,13.281 C24.491,13.138 25.171,12.896 25.903,12.552 L25.903,15.633 C25.235,15.977 24.546,16.215 23.835,16.346 C23.123,16.478 22.275,16.544 21.287,16.544 Z M21.037,6.596 C20.537,6.596 20.117,6.755 19.781,7.074 C19.443,7.391 19.244,7.89 19.187,8.571 L22.843,8.571 C22.829,7.971 22.659,7.492 22.337,7.133 C22.016,6.775 21.582,6.596 21.037,6.596 Z"></path>
                    <path d="M31.009,16.324 L26.307,3.897 L30.747,3.897 L32.837,11.246 C32.845,11.283 32.859,11.345 32.881,11.433 C32.903,11.521 32.924,11.625 32.946,11.746 C32.967,11.867 32.987,11.995 33.006,12.13 C33.024,12.266 33.033,12.392 33.033,12.509 L33.109,12.509 C33.109,12.128 33.174,11.715 33.304,11.27 L35.492,3.899 L39.922,3.899 L35.22,16.326 L31.009,16.326 L31.009,16.324 Z"></path>
                    <polygon points="44.539 16.324 40.305 16.324 40.305 0.289 49.709 0.289 49.709 3.767 44.539 3.767 44.539 6.827 49.306 6.827 49.306 10.304 44.539 10.304"></polygon>
                    <path d="M56.687,16.544 C54.633,16.544 53.04,15.993 51.904,14.893 C50.768,13.793 50.201,12.226 50.201,10.194 C50.201,8.095 50.726,6.485 51.779,5.363 C52.831,4.24 54.333,3.679 56.285,3.679 C58.142,3.679 59.577,4.166 60.59,5.143 C61.602,6.12 62.109,7.525 62.109,9.36 L62.109,11.269 L54.501,11.269 C54.53,11.963 54.782,12.508 55.258,12.903 C55.733,13.298 56.38,13.495 57.2,13.495 C57.947,13.495 58.635,13.424 59.263,13.281 C59.891,13.138 60.571,12.896 61.304,12.552 L61.304,15.633 C60.636,15.977 59.947,16.215 59.236,16.346 C58.522,16.478 57.674,16.544 56.687,16.544 Z M56.437,6.596 C55.936,6.596 55.517,6.755 55.18,7.074 C54.842,7.391 54.644,7.89 54.586,8.571 L58.243,8.571 C58.228,7.971 58.059,7.492 57.737,7.133 C57.414,6.775 56.98,6.596 56.437,6.596 Z"></path>
                    <path d="M72.699,12.508 C72.699,13.838 72.249,14.844 71.349,15.524 C70.449,16.204 69.158,16.545 67.474,16.545 C66.56,16.545 65.765,16.495 65.09,16.397 C64.415,16.299 63.726,16.118 63.023,15.854 L63.023,12.421 C63.683,12.713 64.407,12.954 65.194,13.145 C65.981,13.336 66.683,13.43 67.3,13.43 C68.221,13.43 68.682,13.218 68.682,12.794 C68.682,12.574 68.553,12.379 68.296,12.207 C68.038,12.035 67.289,11.7 66.048,11.203 C64.916,10.735 64.125,10.203 63.675,9.607 C63.226,9.011 63,8.256 63,7.342 C63,6.187 63.442,5.287 64.328,4.644 C65.213,4 66.465,3.679 68.083,3.679 C68.896,3.679 69.659,3.768 70.374,3.948 C71.089,4.127 71.831,4.388 72.601,4.732 L71.447,7.496 C70.882,7.24 70.283,7.022 69.651,6.844 C69.02,6.664 68.505,6.575 68.105,6.575 C67.409,6.575 67.061,6.747 67.061,7.091 C67.061,7.303 67.182,7.484 67.425,7.633 C67.668,7.783 68.37,8.089 69.531,8.549 C70.394,8.907 71.038,9.259 71.463,9.602 C71.888,9.946 72.199,10.35 72.399,10.814 C72.6,11.277 72.699,11.842 72.699,12.508 Z"></path>
                    <path d="M79.764,13.154 C80.337,13.154 81.023,13.011 81.822,12.726 L81.822,15.852 C81.249,16.101 80.703,16.278 80.183,16.384 C79.664,16.489 79.057,16.543 78.361,16.543 C76.931,16.543 75.901,16.189 75.269,15.484 C74.638,14.778 74.323,13.694 74.323,12.232 L74.323,7.11 L72.832,7.11 L72.832,5.366 L74.726,4.017 L75.826,1.407 L78.612,1.407 L78.612,3.896 L81.637,3.896 L81.637,7.11 L78.612,7.11 L78.612,11.947 C78.61,12.753 78.995,13.154 79.764,13.154 Z"></path>
                </g>
                <g id="Shape" transform="translate(47.000000, 9.000000)" fill="#E6E6E5" fill-rule="nonzero">
                    <path d="M7.729,7.313 L14.651,7.313 L14.651,15.957 C12.772,16.601 10.706,16.923 8.453,16.923 C5.981,16.923 4.071,16.206 2.722,14.773 C1.373,13.34 0.698,11.295 0.698,8.641 C0.698,6.052 1.437,4.037 2.914,2.597 C4.391,1.157 6.461,0.436 9.122,0.436 C10.131,0.436 11.084,0.532 11.98,0.721 C12.876,0.911 13.656,1.153 14.322,1.446 L12.951,4.846 C11.795,4.276 10.527,3.991 9.144,3.991 C7.879,3.991 6.901,4.402 6.21,5.224 C5.519,6.047 5.173,7.222 5.173,8.75 C5.173,10.25 5.486,11.393 6.111,12.179 C6.736,12.965 7.637,13.358 8.815,13.358 C9.459,13.358 10.051,13.296 10.592,13.171 L10.592,10.659 L7.729,10.659 L7.729,7.313 L7.729,7.313 Z"></path>
                    <path d="M30.185,8.345 C30.185,11.022 29.448,13.083 27.975,14.532 C26.502,15.981 24.43,16.704 21.761,16.704 L16.573,16.704 L16.573,0.667 L22.124,0.667 C24.698,0.667 26.685,1.325 28.085,2.642 C29.485,3.959 30.185,5.858 30.185,8.345 Z M25.688,8.498 C25.688,7.028 25.397,5.938 24.816,5.229 C24.235,4.52 23.352,4.165 22.167,4.165 L20.905,4.165 L20.905,13.149 L21.87,13.149 C23.186,13.149 24.152,12.766 24.766,12.003 C25.38,11.238 25.688,10.07 25.688,8.498 Z"></path>
                    <path d="M38.15,7.313 L45.072,7.313 L45.072,15.957 C43.193,16.601 41.127,16.923 38.874,16.923 C36.402,16.923 34.492,16.206 33.143,14.773 C31.794,13.34 31.119,11.295 31.119,8.641 C31.119,6.052 31.858,4.037 33.335,2.597 C34.812,1.157 36.882,0.436 39.543,0.436 C40.552,0.436 41.505,0.532 42.401,0.721 C43.297,0.911 44.077,1.153 44.743,1.446 L43.372,4.846 C42.216,4.276 40.948,3.991 39.565,3.991 C38.3,3.991 37.322,4.402 36.631,5.224 C35.94,6.047 35.594,7.222 35.594,8.75 C35.594,10.25 35.907,11.393 36.532,12.179 C37.157,12.965 38.058,13.358 39.236,13.358 C39.88,13.358 40.472,13.296 41.013,13.171 L41.013,10.659 L38.15,10.659 L38.15,7.313 Z"></path>
                </g>
                <path d="M8.068,60 L14.859,60 C16.466,60 18.463,58.872 19.291,57.489 L25.011,47.97 C25.688,46.574 25.664,44.544 24.892,43.257 L21.514,37.665 L8.068,60 Z" id="Shape" fill="url(#radialGradient-9)" fill-rule="nonzero"></path>
                <path d="M15.368,32.514 L0.266,57.763 C-0.317,59.011 0.289,60 1.787,60 L8.068,60 L21.514,37.665 L15.368,27.492 C16.197,28.87 16.197,31.13 15.368,32.514" id="Shape" fill="url(#radialGradient-10)" fill-rule="nonzero"></path>
                <path d="M1.787,0 C0.174,0 -0.467,1.133 0.363,2.511 L24.892,43.256 C25.664,44.544 25.687,46.573 25.011,47.969 L30.974,38.044 L8.072,0 L1.787,0 Z" id="Shape" fill="url(#radialGradient-11)" fill-rule="nonzero"></path>
                <path d="M8.072,0 L30.975,38.045 L34.296,32.515 C35.126,31.13 35.126,28.87 34.296,27.492 L19.292,2.511 C18.463,1.133 16.467,0 14.86,0 L8.072,0 Z" id="Shape" fill="url(#radialGradient-12)" fill-rule="nonzero"></path>
                <path d="M59.0114439,44.3104813 L59.0114439,46.1293049 L50,46.1293049 L50,44.2278075 L53.6583155,40.5281551 C54.8846496,39.2742629 55.7320476,38.3338579 56.2005348,37.7069118 C56.669022,37.0799657 56.903262,36.4220266 56.903262,35.7330749 C56.903262,35.1130183 56.6621326,34.5825334 56.1798663,34.1416043 C55.6976001,33.7006752 55.0775528,33.4802139 54.3197059,33.4802139 C53.6720912,33.4802139 53.1140487,33.6731175 52.6455615,34.0589305 C52.1770743,34.4447435 51.8739401,34.9132236 51.7361497,35.464385 L50,34.7616578 C50.2755807,33.8935786 50.8060656,33.1598559 51.5914706,32.5604679 C52.3768756,31.9610799 53.3000571,31.6613904 54.3610428,31.6613904 C55.6424931,31.6613904 56.7103523,32.054087 57.5646524,32.839492 C58.4189526,33.624897 58.8460963,34.589415 58.8460963,35.7330749 C58.8460963,37.0971993 58.0951501,38.571534 56.5932353,40.156123 L52.4595455,44.3104813 L59.0114439,44.3104813 Z M60.8302674,39.0606952 C60.8302674,36.9111657 61.3607523,35.1405863 62.421738,33.7489038 C63.4827237,32.3572212 64.8468277,31.6613904 66.5140909,31.6613904 C68.1813542,31.6613904 69.5454582,32.3641106 70.6064439,33.7695722 C71.6674296,35.1612547 72.1979145,36.9249448 72.1979145,39.0606952 C72.1979145,41.1826666 71.6674296,42.9532461 70.6064439,44.3724867 C69.5454582,45.7641692 68.1813542,46.46 66.5140909,46.46 C64.8468277,46.46 63.4827237,45.7641692 62.421738,44.3724867 C61.3607523,42.9532461 60.8302674,41.1826666 60.8302674,39.0606952 Z M70.2550803,39.0606952 C70.2550803,37.4347691 69.9106096,36.0982227 69.2216578,35.0510161 C68.5464851,34.0038094 67.6439718,33.4802139 66.5140909,33.4802139 C65.3842101,33.4802139 64.4816968,34.0038094 63.8065241,35.0510161 C63.1175723,36.0982227 62.7731016,37.4347691 62.7731016,39.0606952 C62.7731016,40.6866213 63.1175723,42.0300571 63.8065241,43.0910428 C64.4816968,44.1244704 65.3842101,44.6411765 66.5140909,44.6411765 C67.6439718,44.6411765 68.5464851,44.117581 69.2216578,43.0703744 C69.9106096,42.0093887 70.2550803,40.6728423 70.2550803,39.0606952 Z M79.1011765,31.9920856 L79.1011765,46.1293049 L77.1996792,46.1293049 L77.1996792,34.3482888 L74.4507755,35.5470588 L73.7273797,33.9349198 L77.881738,31.9920856 L79.1011765,31.9920856 Z M90.8201873,33.9349198 L83.9582621,46.46 L82.2634493,45.5919252 L88.8153477,33.8109091 L81.6640642,33.8109091 L81.7054011,31.9920856 L90.8201873,31.9920856 L90.8201873,33.9349198 Z M111.509305,39.329385 C111.509305,41.3962403 110.896147,43.0428103 109.669813,44.2691444 C108.291909,45.7297221 106.479994,46.46 104.234011,46.46 C102.084481,46.46 100.265676,45.7159433 98.7775402,44.2278075 C97.2894044,42.7396717 96.5453477,40.9070876 96.5453477,38.73 C96.5453477,36.5529125 97.2894044,34.7203283 98.7775402,33.2321925 C100.265676,31.7440567 102.084481,31 104.234011,31 C105.322555,31 106.349077,31.1929036 107.31361,31.5787166 C108.278142,31.9645296 109.070425,32.5087933 109.690481,33.2115241 L108.326364,34.5756417 C107.871656,34.0244803 107.282611,33.5938919 106.559211,33.2838636 C105.835812,32.9738354 105.060753,32.8188235 104.234011,32.8188235 C102.621864,32.8188235 101.25776,33.3768661 100.141658,34.4929679 C99.0393351,35.6228488 98.4881819,37.0351787 98.4881819,38.73 C98.4881819,40.4248213 99.0393351,41.8371512 100.141658,42.9670321 C101.25776,44.083134 102.621864,44.6411765 104.234011,44.6411765 C105.708368,44.6411765 106.934683,44.2278117 107.912995,43.4010695 C108.891306,42.5743274 109.456238,41.4375741 109.607808,39.9907754 L104.234011,39.9907754 L104.234011,38.2132888 L111.405963,38.2132888 C111.474858,38.5991018 111.509305,38.9711301 111.509305,39.329385 Z M114.568235,43.0290375 C114.568235,43.5250827 114.778363,43.9384476 115.198623,44.2691444 C115.618884,44.5998413 116.111477,44.7651872 116.676417,44.7651872 C117.475601,44.7651872 118.188656,44.4689424 118.815602,43.8764439 C119.442548,43.2839454 119.756016,42.5881145 119.756016,41.7889305 C119.163518,41.3204433 118.336788,41.0862032 117.275802,41.0862032 C116.504176,41.0862032 115.860016,41.2722174 115.343302,41.6442514 C114.826588,42.0162853 114.568235,42.4778761 114.568235,43.0290375 Z M117.027781,35.6710695 C118.433242,35.6710695 119.542438,36.0465426 120.355401,36.7975 C121.168364,37.5484574 121.57484,38.5784248 121.57484,39.8874332 L121.57484,46.1293049 L119.756016,46.1293049 L119.756016,44.7238503 L119.673342,44.7238503 C118.887937,45.8812892 117.840746,46.46 116.531738,46.46 C115.415636,46.46 114.482121,46.1293082 113.731163,45.4679145 C112.980206,44.8065208 112.604733,43.9797911 112.604733,42.9877006 C112.604733,41.9404939 113.000874,41.1068748 113.793169,40.4868182 C114.585463,39.8667616 115.642988,39.556738 116.965776,39.556738 C118.095656,39.556738 119.025727,39.7634204 119.756016,40.1767915 L119.756016,39.742754 C119.756016,39.0813603 119.494218,38.5198731 118.970615,38.0582754 C118.447012,37.5966777 117.833854,37.3658824 117.131123,37.3658824 C116.070137,37.3658824 115.229629,37.8136943 114.609572,38.7093316 L112.935428,37.6552407 C113.858623,36.3324533 115.222727,35.6710695 117.027781,35.6710695 Z M125.625856,31.3306952 L125.625856,46.1293049 L123.724358,46.1293049 L123.724358,31.3306952 L125.625856,31.3306952 Z M130.400268,32.5087968 C130.400268,32.8808307 130.269369,33.1977438 130.007567,33.4595455 C129.745765,33.7213471 129.428852,33.852246 129.056818,33.852246 C128.684784,33.852246 128.367871,33.7213471 128.10607,33.4595455 C127.844268,33.1977438 127.713369,32.8808307 127.713369,32.5087968 C127.713369,32.1367628 127.844268,31.8198498 128.10607,31.5580481 C128.367871,31.2962465 128.684784,31.1653476 129.056818,31.1653476 C129.428852,31.1653476 129.745765,31.2962465 130.007567,31.5580481 C130.269369,31.8198498 130.400268,32.1367628 130.400268,32.5087968 Z M130.007567,36.0017647 L130.007567,46.1293049 L128.10607,46.1293049 L128.10607,36.0017647 L130.007567,36.0017647 Z M137.014171,46.46 C135.512257,46.46 134.265273,45.9501834 133.273182,44.9305348 C132.294871,43.8833281 131.805722,42.5950077 131.805722,41.0655348 C131.805722,39.5085038 132.294871,38.2201834 133.273182,37.2005348 C134.265273,36.1808862 135.512257,35.6710695 137.014171,35.6710695 C138.047599,35.6710695 138.950112,35.9294226 139.721738,36.4461364 C140.493364,36.9628502 141.072075,37.6759046 141.457888,38.5853209 L139.721738,39.3087166 C139.184356,38.0410454 138.240506,37.4072193 136.890161,37.4072193 C136.022081,37.4072193 135.271135,37.7585794 134.6373,38.4613102 C134.017243,39.164041 133.707219,40.0321072 133.707219,41.0655348 C133.707219,42.0989624 134.017243,42.9670286 134.6373,43.6697594 C135.271135,44.3724902 136.022081,44.7238503 136.890161,44.7238503 C138.281843,44.7238503 139.26014,44.0900242 139.82508,42.822353 L141.519893,43.5457487 C141.147859,44.455165 140.565704,45.1682194 139.773409,45.6849332 C138.981115,46.201647 138.061378,46.46 137.014171,46.46 Z M145.632915,32.5087968 C145.632915,32.8808307 145.502016,33.1977438 145.240214,33.4595455 C144.978412,33.7213471 144.661499,33.852246 144.289465,33.852246 C143.917432,33.852246 143.600518,33.7213471 143.338717,33.4595455 C143.076915,33.1977438 142.946016,32.8808307 142.946016,32.5087968 C142.946016,32.1367628 143.076915,31.8198498 143.338717,31.5580481 C143.600518,31.2962465 143.917432,31.1653476 144.289465,31.1653476 C144.661499,31.1653476 144.978412,31.2962465 145.240214,31.5580481 C145.502016,31.8198498 145.632915,32.1367628 145.632915,32.5087968 Z M145.240214,36.0017647 L145.240214,46.1293049 L143.338717,46.1293049 L143.338717,36.0017647 L145.240214,36.0017647 Z M149.001872,43.0290375 C149.001872,43.5250827 149.211999,43.9384476 149.63226,44.2691444 C150.05252,44.5998413 150.545113,44.7651872 151.110054,44.7651872 C151.909238,44.7651872 152.622292,44.4689424 153.249238,43.8764439 C153.876184,43.2839454 154.189653,42.5881145 154.189653,41.7889305 C153.597154,41.3204433 152.770424,41.0862032 151.709439,41.0862032 C150.937813,41.0862032 150.293653,41.2722174 149.776939,41.6442514 C149.260225,42.0162853 149.001872,42.4778761 149.001872,43.0290375 Z M151.461417,35.6710695 C152.866879,35.6710695 153.976075,36.0465426 154.789038,36.7975 C155.602001,37.5484574 156.008476,38.5784248 156.008476,39.8874332 L156.008476,46.1293049 L154.189653,46.1293049 L154.189653,44.7238503 L154.106979,44.7238503 C153.321574,45.8812892 152.274383,46.46 150.965375,46.46 C149.849273,46.46 148.915757,46.1293082 148.1648,45.4679145 C147.413842,44.8065208 147.038369,43.9797911 147.038369,42.9877006 C147.038369,41.9404939 147.434511,41.1068748 148.226805,40.4868182 C149.0191,39.8667616 150.076625,39.556738 151.399412,39.556738 C152.529293,39.556738 153.459364,39.7634204 154.189653,40.1767915 L154.189653,39.742754 C154.189653,39.0813603 153.927855,38.5198731 153.404252,38.0582754 C152.880648,37.5966777 152.26749,37.3658824 151.56476,37.3658824 C150.503774,37.3658824 149.663265,37.8136943 149.043209,38.7093316 L147.369064,37.6552407 C148.29226,36.3324533 149.656364,35.6710695 151.461417,35.6710695 Z" id="2017-Galicia" fill="#E6E6E5"></path>
            </g>
        </g>
    </g>
</svg>